<?xml version="1.0" standalone="no"?>
<!DOCTYPE svg PUBLIC "-//W3C//DTD SVG 1.1//EN" "http://www.w3.org/Graphics/SVG/1.1/DTD/svg11.dtd" >
<svg xmlns="http://www.w3.org/2000/svg">
<metadata>
Created by FontForge 20120731 at Mon Dec 26 17:39:05 2016
 By admin
</metadata>
<defs>
<font id="iconfont" horiz-adv-x="1024" >
  <font-face 
    font-family="iconfont"
    font-weight="500"
    font-stretch="normal"
    units-per-em="1024"
    panose-1="2 0 6 3 0 0 0 0 0 0"
    ascent="896"
    descent="-128"
    x-height="792"
    bbox="-0.451328 -128 2048 896.053"
    underline-thickness="0"
    underline-position="0"
    unicode-range="U+0078-E6BD"
  />
<missing-glyph 
 />
    <glyph glyph-name=".notdef" 
 />
    <glyph glyph-name=".notdef" 
 />
    <glyph glyph-name=".null" horiz-adv-x="0" 
 />
    <glyph glyph-name="nonmarkingreturn" horiz-adv-x="341" 
 />
    <glyph glyph-name="x" unicode="x" horiz-adv-x="1001" 
d="M281 543q-27 -1 -53 -1h-83q-18 0 -36.5 -6t-32.5 -18.5t-23 -32t-9 -45.5v-76h912v41q0 16 -0.5 30t-0.5 18q0 13 -5 29t-17 29.5t-31.5 22.5t-49.5 9h-133v-97h-438v97zM955 310v-52q0 -23 0.5 -52t0.5 -58t-10.5 -47.5t-26 -30t-33 -16t-31.5 -4.5q-14 -1 -29.5 -0.5
t-29.5 0.5h-32l-45 128h-439l-44 -128h-29h-34q-20 0 -45 1q-25 0 -41 9.5t-25.5 23t-13.5 29.5t-4 30v167h911zM163 247q-12 0 -21 -8.5t-9 -21.5t9 -21.5t21 -8.5q13 0 22 8.5t9 21.5t-9 21.5t-22 8.5zM316 123q-8 -26 -14 -48q-5 -19 -10.5 -37t-7.5 -25t-3 -15t1 -14.5
t9.5 -10.5t21.5 -4h37h67h81h80h64h36q23 0 34 12t2 38q-5 13 -9.5 30.5t-9.5 34.5q-5 19 -11 39h-368zM336 498v228q0 11 2.5 23t10 21.5t20.5 15.5t34 6h188q31 0 51.5 -14.5t20.5 -52.5v-227h-327z" />
    <glyph glyph-name="zhankaisanjiao_xia" unicode="&#xe684;" 
d="M512 171l341 426h-682z" />
    <glyph glyph-name="zhankaisanjiao_you" unicode="&#xe685;" 
d="M725 384l-426 341v-682z" />
    <glyph glyph-name="icon-up" unicode="&#xe686;" 
d="M909 -32h-794q-19 0 -35 16t-16 35v263q0 19 16 35t35 16t35 -16t16 -35v-212h692v212q0 19 16 35t35 16t35 -16t16 -35v-263q0 -19 -16 -35t-35 -16zM666 525q-11 0 -22.5 5t-16.5 14l-64 70v-313q0 -19 -16 -35t-35 -16t-35 16t-16 35v313l-64 -70q-19 -19 -39 -19
q-24 0 -37.5 13.5t-13.5 37.5q0 19 13 32l154 173q4 9 15.5 14t22.5 5t22.5 -5t15.5 -14l154 -173q13 -13 13 -32q0 -24 -13.5 -37.5t-37.5 -13.5z" />
    <glyph glyph-name="shezhi" unicode="&#xe68a;" 
d="M951 443q0 29 -44 43h-15q-58 12 -80 66q-28 37 -15 103l8 14q5 11 0.5 29.5t-15.5 29.5q-15 14 -51 29l-51 29q-33 11 -59 -14l-7 -8q-55 -44 -110 -44q-59 0 -95 37l-15 15q-5 11 -23.5 15.5t-34.5 -1.5q-15 -7 -51 -29q-17 -10 -29.5 -19t-17.5 -13l-5 -5
q-10 -5 -15 -22.5t1 -28.5l7 -14q13 -66 -15 -103q-32 -44 -87 -66h-15q-33 -11 -44 -43v-118q0 -29 44 -43h15q58 -12 80 -66q28 -37 15 -103l-8 -14q-5 -11 -0.5 -29.5t15.5 -29.5q15 -14 51 -29l51 -29q33 -11 59 14l7 8q49 36 95 36q59 0 95 -36l8 -8q25 -25 58 -14
q15 7 51 29l52 29q25 26 14 59l-7 14q-13 66 15 103q30 41 80 66h15q33 11 44 43v59q13 20 20 34.5t8 19.5zM512 216q-72 0 -124 48.5t-52 119.5t52 119.5t124 48.5t124 -48.5t52 -119.5t-52 -119.5t-124 -48.5z" />
    <glyph glyph-name="Arrow" unicode="&#xe68b;" 
d="M512 312l-256 256q-15 16 -35.5 16t-36 -15.5t-15.5 -36t15 -35.5l287 -287q7 -7 15 -8.5t26 -1.5q5 0 20.5 5t20.5 5l287 287q15 15 15 35.5t-15.5 36t-36 15.5t-35.5 -16z" />
    <glyph glyph-name="zengjia" unicode="&#xe68c;" 
d="M597 469v342h-170v-342h-342v-170h342v-342h170v342h342v170h-342z" />
    <glyph glyph-name="icon-down" unicode="&#xe68d;" 
d="M115 800h794q19 0 35 -16t16 -35v-263q0 -19 -16 -35t-35 -16t-35 16t-16 35v212h-692v-212q0 -19 -16 -35t-35 -16t-35 16t-16 35v263q0 19 16 35t35 16zM358 243q11 0 22.5 -5t16.5 -14l64 -70v320q0 19 16 35t35 16t35 -16t16 -35v-314l64 70q5 9 16.5 14.5t22.5 5.5
q19 0 35 -16t16 -35.5t-13 -32.5l-154 -172q-4 -9 -15.5 -14.5t-22.5 -5.5t-22.5 5.5t-15.5 14.5l-154 166q-13 13 -13 32q0 24 13.5 37.5t37.5 13.5z" />
    <glyph glyph-name="close" unicode="&#xe68e;" 
d="M512 466l-317 317q-16 16 -41.5 16t-41 -15.5t-15.5 -41t16 -41.5l317 -317l-317 -317q-16 -16 -16 -41.5t15.5 -41t41 -15.5t41.5 16l317 317l317 -317q16 -16 41.5 -16t41 15.5t15.5 41t-16 41.5l-317 317l317 317q16 16 16 41.5t-15.5 41t-41 15.5t-41.5 -16z" />
    <glyph glyph-name="excel" unicode="&#xe68f;" 
d="M85 634v-495h450v495h-450zM410 253h-97l-29 57l-34 -57h-62l68 114l-68 142h96l29 -57l34 57h63l-69 -114zM939 -71h-774v165h40v-120h688v825h-688v-119h-40v159h774v-910zM586 384h222v-40h-222v40zM586 509h222v-40h-222v40zM586 259h222v-40h-222v40z" />
    <glyph glyph-name="menu" unicode="&#xe690;" 
d="M222 589h580v-68h-580v68zM222 418h580v-68h-580v68zM222 247h580v-68h-580v68z" />
    <glyph glyph-name="tongzhi1" unicode="&#xe691;" 
d="M154 106v29l80 81v234q0 102 50.5 176.5t147.5 101.5v22q0 23 19.5 44.5t45.5 21.5q24 0 45 -20t21 -46v-15q70 -7 119.5 -49.5t71 -101t21.5 -127.5v-227l81 -80v-29zM497 -26q33 0 57 24t24 57h-168q0 -32 27 -56.5t60 -24.5z" />
    <glyph glyph-name="el-icon-arrow-down" unicode="&#xe692;" horiz-adv-x="2047" 
d="M976 -117q36 -15 77.5 -9.5t70.5 31.5l889 806q36 33 34.5 78.5t-39.5 76.5q-16 12 -42 21t-46 9q-22 0 -49 -10t-44 -24l-798 -723l-809 720q-17 14 -44 23.5t-48 9.5t-47 -9t-42 -21.5t-27.5 -35.5t-11.5 -43q0 -44 36 -76l897 -799q1 -1 3.5 -2t3.5 -1l3 -4
q5 -4 26 -14q1 0 3.5 -1.5t3.5 -2.5z" />
    <glyph glyph-name="el-icon-arrow-left" unicode="&#xe693;" 
d="M262 360q-8 18 -5.5 39t16.5 35l403 445q16 18 38.5 17t38.5 -20q15 -19 15 -44q0 -26 -17 -46l-362 -399l360 -405q17 -20 17 -46q0 -25 -15 -44q-6 -8 -17.5 -14t-22.5 -6q-21 0 -37 18l-400 449l-0.5 1t-1.5 2l-2 2l-6 12q-1 1 -1.5 2t-0.5 2z" />
    <glyph glyph-name="el-icon-arrow-up" unicode="&#xe694;" horiz-adv-x="2048" 
d="M1071 885q-36 15 -77 9.5t-70 -31.5l-889 -806q-36 -33 -34.5 -78.5t39.5 -76.5q16 -12 41.5 -21t45.5 -9q22 0 49.5 10t43.5 24l798 723l810 -720q17 -14 44 -23.5t48 -9.5t46.5 9t42.5 21q15 13 26.5 36t12.5 43q0 44 -36 76l-898 799q-1 1 -3 2t-3 1l-3 4q-5 4 -26 14
q-1 0 -3.5 1.5t-3.5 2.5h-1z" />
    <glyph glyph-name="el-icon-arrow-right" unicode="&#xe695;" 
d="M762 360q8 18 5.5 39t-16.5 35l-403 445q-16 18 -38.5 17t-38.5 -20q-15 -19 -15 -44q0 -26 17 -46l362 -399l-360 -405q-17 -20 -17 -46q0 -25 15 -44q6 -8 17.5 -14t22.5 -6q22 0 38 18l399 449l0.5 1t1.5 2l2 2l6 12q1 1 1.5 2t0.5 2z" />
    <glyph glyph-name="el-icon-caret-left" unicode="&#xe696;" 
d="M260 351q-11 12 -19 32t-8 36t8 35.5t19 31.5l357 367q54 55 92 39.5t38 -92.5v-763q0 -77 -38 -92.5t-92 39.5z" />
    <glyph glyph-name="el-icon-caret-right" unicode="&#xe697;" 
d="M719 351q28 28 27.5 67.5t-27.5 67.5l-357 367q-53 55 -91 39.5t-38 -92.5v-763q0 -77 38 -92.5t91 39.5z" />
    <glyph glyph-name="el-icon-caret-bottom" unicode="&#xe698;" horiz-adv-x="1877" 
d="M751 4q52 -50 124.5 -50t122.5 50l673 655q67 64 77.5 118.5t-35.5 86.5t-139 32h-1398q-93 0 -139 -32t-35.5 -86.5t76.5 -118.5z" />
    <glyph glyph-name="el-icon-caret-top" unicode="&#xe69a;" horiz-adv-x="1877" 
d="M751 847q22 20 58 34.5t65.5 14.5t66 -14.5t57.5 -34.5l673 -656q67 -64 77.5 -118.5t-35.5 -86.5t-139 -32h-1398q-93 0 -139 32t-35.5 86.5t76.5 118.5l673 656v0z" />
    <glyph glyph-name="el-icon-close" unicode="&#xe69b;" 
d="M512 484l-391 391q-9 9 -23.5 15t-26.5 6q-29 0 -50 -21t-21 -50q0 -12 6 -26.5t15 -23.5l391 -391l-391 -391q-9 -9 -15 -23.5t-6 -26.5q0 -29 21 -50t50 -21q12 0 26.5 6t23.5 15l391 391l391 -391q9 -9 23.5 -15t26.5 -6q29 0 50 21t21 50q0 12 -6 26.5t-15 23.5
l-391 391l391 391q9 9 15 23.5t6 26.5q0 29 -21 50t-50 21q-12 0 -26.5 -6t-23.5 -15z" />
    <glyph glyph-name="el-icon-circle-cross" unicode="&#xe69c;" 
d="M512 -128h-3q-42 0 -99.5 11.5t-96.5 28.5q-39 16 -86.5 48t-77 61.5t-61.5 77t-48 86.5q-17 39 -28.5 96.5t-11.5 99.5v3q0 106 40 199q16 39 48 86.5t61.5 77t77 61.5t86.5 48q39 17 96.5 28.5t99.5 11.5h3h3q42 0 99.5 -11.5t96.5 -28.5q39 -16 86.5 -48t77 -61.5
t61.5 -77t48 -86.5q17 -39 28.5 -96.5t11.5 -99.5v-3v-3q0 -42 -11.5 -99.5t-28.5 -96.5q-16 -39 -48 -86.5t-61.5 -77t-77 -61.5t-86.5 -48q-39 -17 -96.5 -28.5t-99.5 -11.5h-3zM747 533q7 7 7 17v1v0q0 10 -7 18l-53 51q-7 8 -17 8t-17 -8l-148 -147l-149 147q-7 8 -17 8
t-17 -8l-53 -51q-6 -8 -6 -18v0q0 -11 6 -18l149 -148l-149 -147q-6 -8 -6 -18v0q0 -11 6 -18l53 -52q7 -7 17 -7t17 7l149 148l148 -148q7 -7 17 -7t17 7l53 52q7 7 7 17v1v0q0 10 -7 18l-149 147l149 148v0z" />
    <glyph glyph-name="el-icon-circle-check" unicode="&#xe69d;" 
d="M512 896h-3q-42 0 -99.5 -11.5t-96.5 -28.5q-39 -16 -86.5 -48t-77 -61.5t-61.5 -77t-48 -86.5q-17 -39 -28.5 -96.5t-11.5 -99.5v-3q0 -106 40 -199q16 -39 48 -86.5t61.5 -77t77 -61.5t86.5 -48q39 -17 96.5 -28.5t99.5 -11.5h3h3q42 0 99.5 11.5t96.5 28.5
q39 16 86.5 48t77 61.5t61.5 77t48 86.5q17 39 28.5 96.5t11.5 99.5v3v3q0 42 -11.5 99.5t-28.5 96.5q-16 39 -48 86.5t-61.5 77t-77 61.5t-86.5 48q-39 17 -96.5 28.5t-99.5 11.5h-3zM798 497l-373 -373q-7 -7 -17.5 -7t-17.5 7l-7 8l-206 206q-7 7 -7 17.5t7 17.5l51 50
q7 8 17 8t17 -8l145 -146l306 305q7 8 17 8t17 -8l50 -50q8 -7 8 -17.5t-8 -17.5h1z" />
    <glyph glyph-name="el-icon-d-caret" unicode="&#xe69e;" 
d="M444 -100q11 -10 29 -17t33 -7t33 7t29 17l301 284q51 48 37.5 82.5t-83.5 34.5h-635q-70 0 -83 -34.5t38 -82.5zM444 872q11 10 29 17t33 7t33 -7t29 -17l301 -284q51 -48 37.5 -82.5t-83.5 -34.5h-635q-70 0 -83 34.5t38 82.5z" />
    <glyph glyph-name="el-icon-d-arrow-right" unicode="&#xe69f;" 
d="M1018 360q8 18 5.5 39t-16.5 35l-403 445q-16 18 -38.5 17t-38.5 -20q-15 -19 -15 -44q0 -26 17 -46l362 -399l-360 -405q-17 -20 -17 -46q0 -25 15 -44q6 -8 17.5 -14t22.5 -6q22 0 38 18l399 449l0.5 1.5t1.5 1.5l1 2q2 2 7 13q1 0 1.5 1.5l0.5 1.5v0zM506 360
q8 18 5.5 39t-16.5 35l-403 445q-16 18 -38.5 17t-38.5 -20q-15 -19 -15 -44q0 -26 17 -46l362 -399l-360 -405q-17 -20 -17 -46q0 -25 15 -44q6 -8 18 -14t22 -6q22 0 38 18l399 449l0.5 1t1.5 2l2 2q2 2 6 12q1 1 1.5 2t0.5 2z" />
    <glyph glyph-name="el-icon-date" unicode="&#xe6a0;" 
d="M713 782h-402v114h-151v-114h-50q-28 0 -47.5 -19.5t-19.5 -47.5v-776q0 -28 19 -47.5t47 -19.5h806q28 0 47 19.5t19 47.5v0v776v1q0 27 -19.5 46.5t-46.5 19.5h-1h-50v114h-151v-114zM160 -18v573h704v-573h-704zM555 299v-256h256v256h-256z" />
    <glyph glyph-name="el-icon-d-arrow-left" unicode="&#xe6a1;" 
d="M6 360q-8 18 -5 39t16 35l403 445q16 18 38.5 17t38.5 -20q15 -19 15 -44q0 -26 -17 -46l-362 -399l360 -405q17 -20 17 -46q0 -25 -15 -44q-6 -8 -17.5 -14t-22.5 -6q-21 0 -37 18l-400 449l-0.5 1t-1.5 2l-1 2q-2 2 -7 12q-1 1 -1.5 2t-0.5 2zM518 360q-8 18 -5.5 39
t16.5 35l403 445q16 18 38.5 17t38.5 -20q15 -19 15 -44q0 -26 -17 -46l-362 -399l360 -405q17 -20 17 -46q0 -25 -15 -44q-6 -8 -18 -14t-22 -6q-22 0 -38 18l-399 449l-0.5 1t-1.5 2l-2 2l-6 12q-1 1 -1.5 2t-0.5 2z" />
    <glyph glyph-name="el-icon-edit" unicode="&#xe6a2;" 
d="M84 180l-84 -308l307 85l485 485l-226 220zM755 850l-121 -121l227 -219l117 117q46 46 46 111.5t-46 111.5t-111.5 46t-111.5 -46z" />
    <glyph glyph-name="el-icon-delete" unicode="&#xe6a3;" 
d="M642 706v126q0 27 -16.5 45.5t-40.5 18.5h-136q-25 0 -45.5 -19t-20.5 -45v-126h-204q1 0 0 0q0 -1 -2 -2q-49 -22 -49 -64q0 -26 17.5 -45t41.5 -19h650q24 0 41.5 19t17.5 45q0 24 -15 40.5t-29 21.5l-15 4h-195zM448 704v64q0 32 18 48t46 16q29 0 46.5 -16t17.5 -48
v-64h-128zM320 -128h384q53 0 90.5 37.5t37.5 90.5v512h-640v-512q0 -53 37.5 -90.5t90.5 -37.5zM644 356q0 11 7.5 19.5t18.5 8.5t18.5 -8.5t7.5 -19.5v-342q0 -12 -7.5 -20t-18.5 -8t-18.5 8t-7.5 20v342zM486 356q0 11 7.5 19.5t18.5 8.5t18.5 -8.5t7.5 -19.5v-342
q0 -12 -7.5 -20t-18.5 -8t-18.5 8t-7.5 20v342zM328 356q0 11 7.5 19.5t18.5 8.5t18.5 -8.5t7.5 -19.5v-342q0 -12 -7.5 -20t-18.5 -8t-18.5 8t-7.5 20v342z" />
    <glyph glyph-name="el-icon-document" unicode="&#xe6a4;" 
d="M441 896l-356 -366v-519q0 -57 41 -98t99 -41h574q58 0 99 41t41 98v746q0 57 -41 98t-99 41h-358zM832 53q0 -29 -21 -50t-50 -21h-498v0q-30 0 -50.5 20.5t-20.5 49.5v1v404h249q29 0 50 21t21 51v257h249q29 0 50 -21t21 -50v-662v0z" />
    <glyph glyph-name="el-icon-delete1" unicode="&#xe6a5;" 
d="M410 469v-295q0 -18 -17 -18h-35q-17 0 -17 18v295q0 17 17 17h35q7 0 12 -5.5t5 -11.5zM546 469v-295q0 -18 -17 -18h-34q-17 0 -17 18v295q0 17 17 17h34q8 0 12.5 -5.5t4.5 -11.5zM683 469v-295q0 -18 -17 -18h-35q-17 0 -17 18v295q0 17 17 17h35q2 0 5 -2.5
t6.5 -7.5t5.5 -7zM745 94v489h-466v-489q0 -12 11 -34q0 -3 1.5 -4.5t2.5 -1.5h2h438q6 0 6 6q5 5 5 34zM393 651h233l-23 63q0 6 -11 6h-165q-6 0 -12 -6zM882 634v-34q0 -17 -17 -17h-51v-489q0 -44 -23 -74q-26 -34 -57 -34h-438q-38 0 -57 28q-23 31 -23 74v495h-57
q-17 0 -17 17v34q0 17 17 17h165l34 86q6 11 29 34q23 11 40 11h170q17 0 40 -11q2 -2 10 -9t12 -12.5t7 -12.5l34 -86h165q17 0 17 -17z" />
    <glyph glyph-name="el-icon-information" unicode="&#xe6a6;" 
d="M512 -128h-3q-42 0 -99.5 11.5t-96.5 28.5q-39 16 -86.5 48t-77 61.5t-61.5 77t-48 86.5q-17 39 -28.5 96.5t-11.5 99.5v3q0 106 40 199q16 39 48 86.5t61.5 77t77 61.5t86.5 48q39 17 96.5 28.5t99.5 11.5h3h3q42 0 99.5 -11.5t96.5 -28.5q39 -16 86.5 -48t77 -61.5
t61.5 -77t48 -86.5q17 -39 28.5 -96.5t11.5 -99.5v-3v-3q0 -42 -11.5 -99.5t-28.5 -96.5q-16 -39 -48 -86.5t-61.5 -77t-77 -61.5t-86.5 -48q-39 -17 -96.5 -28.5t-99.5 -11.5h-3zM512 677h-1q-13 0 -27.5 -6.5t-23.5 -15.5q-9 -8 -15 -23t-6 -27v-2q0 -30 21 -51.5
t52 -21.5h1q13 0 27.5 6.5t23.5 15.5q9 8 15 23t6 27v1.5v1.5q0 12 -6 27t-15 23q-9 9 -23.5 15.5t-27.5 6.5h-1zM571 401v1q0 23 -17 39t-41 16h-1h-1q-24 0 -41 -16t-17 -39v-1v-261v-1q0 -23 17 -39t41 -16h1h1q24 0 41 16t17 39v1v261z" />
    <glyph glyph-name="el-icon-loading" unicode="&#xe6a7;" 
d="M0 384q0 -139 68.5 -257t186.5 -186.5t257 -68.5t257 68.5t186.5 186.5t68.5 257t-68.5 257t-186.5 186.5t-257 68.5q-16 0 -27.5 -11.5t-11.5 -28t11.5 -28t27.5 -11.5q118 0 217.5 -58t157.5 -157.5t58 -217.5t-58 -217.5t-157.5 -157.5t-217.5 -58t-217.5 58
t-157.5 157.5t-58 217.5q0 16 -11.5 27.5t-28 11.5t-28 -11.5t-11.5 -27.5z" />
    <glyph glyph-name="el-icon-message" unicode="&#xe6a8;" horiz-adv-x="1228" 
d="M1075 896h-921q-50 0 -102 -34.5t-52 -77.5v-22q21 -18 56.5 -48t130.5 -107t172 -135.5t153 -107t102.5 -48.5t99.5 46t158.5 111t167 130.5t135.5 111l54 45.5v24q0 43 -52 77.5t-102 34.5zM0 582v-631q2 -3 6.5 -8.5t19.5 -19t31.5 -24t43 -19t53.5 -8.5h921
q26 0 51 8t43 19.5t32 23.5t21 19.5t7 8.5v633q-18 -16 -48.5 -43t-115.5 -96t-159 -122t-158 -96t-134 -43q-49 0 -132.5 43t-158 95.5t-159 121t-115.5 95.5t-49 43v0v0z" />
    <glyph glyph-name="el-icon-plus" unicode="&#xe6a9;" 
d="M455 441h-284q-26 0 -41.5 -15.5t-15.5 -41.5q0 -25 17 -41t40 -16h284v-284q0 -26 15.5 -41.5t41.5 -15.5q25 0 41 17t16 40v284h284q26 0 41.5 15.5t15.5 41.5q0 25 -17 41t-40 16h-284v284q0 26 -15.5 41.5t-41.5 15.5q-25 0 -41 -17t-16 -40v-284z" />
    <glyph glyph-name="el-icon-picture" unicode="&#xe6aa;" horiz-adv-x="1228" 
d="M176 896q-73 0 -124.5 -51.5t-51.5 -124.5v-672q0 -73 51.5 -124.5t124.5 -51.5h877q73 0 124.5 51.5t51.5 124.5v672q0 73 -51.5 124.5t-124.5 51.5h-877zM892 440q-2 3 -5.5 7.5t-20 12t-37.5 7.5q-25 0 -43.5 -6.5t-23.5 -12.5l-6 -7l-211 -334q-1 -3 -4 -6.5
t-13 -9.5t-23 -6t-24 5.5t-15 10.5l-4 6l-111 130q-4 4 -9.5 10.5t-22.5 17.5t-33.5 11t-33.5 -11t-26 -21l-8 -11l-86 -105v552q0 37 25.5 62.5t61.5 25.5h791q36 0 61.5 -25.5t25.5 -62.5v-509zM570 512q0 -53 -38.5 -90.5t-93 -37.5t-93 37.5t-38.5 90.5t38.5 90.5
t93 37.5t93 -37.5t38.5 -90.5z" />
    <glyph glyph-name="el-icon-search" unicode="&#xe6ab;" 
d="M639 257q32 32 55 85.5t23 98.5q0 106 -75 181t-181 75q-45 0 -99 -22.5t-85 -55.5q-30 -31 -51 -83t-21 -95q0 -106 75 -181t181 -75q43 0 95 21.5t83 50.5zM697 138q-43 -34 -113 -59t-126 -25q-104 0 -192.5 51.5t-140 140t-51.5 193t51.5 193t140 139.5t192.5 51
t192.5 -51t140 -139.5t51.5 -193.5q0 -46 -17.5 -105.5t-41.5 -98.5l202 -202q19 -19 19 -46t-18.5 -45.5t-45.5 -18.5t-45 19l-198 197v0z" />
    <glyph glyph-name="el-icon-time" unicode="&#xe6ac;" 
d="M512 -128q-139 0 -257 68.5t-186.5 186.5t-68.5 257t68.5 257t186.5 186.5t257 68.5t257 -68.5t186.5 -186.5t68.5 -257t-68.5 -257t-186.5 -186.5t-257 -68.5zM512 786q-109 0 -202 -53.5t-146.5 -146.5t-53.5 -202t53.5 -202t146.5 -146.5t202 -53.5t202 53.5
t146.5 146.5t53.5 202t-53.5 202t-146.5 146.5t-202 53.5zM513 316q-20 0 -34 14.5t-14 33.5v229q1 19 15 32.5t33 13.5t33 -13.5t15 -32.5v-180h160q20 -1 34 -15t14 -33.5t-14 -34t-34 -14.5h-208z" />
    <glyph glyph-name="el-icon-share" unicode="&#xe6ad;" 
d="M877 159q38 -15 64.5 -55t26.5 -81v-2v-1q0 -25 -12.5 -56t-30.5 -49t-48.5 -30.5t-56.5 -12.5h-1h-1q-61 0 -104.5 43t-43.5 104v2v9v1q0 4 2 7q0 9 2 17l-365 213q-10 -9 -22 -17q-11 -8 -25 -13q-13 -6 -27.5 -8.5t-28.5 -2.5h-1h-1q-30 0 -59 12q-27 12 -48 33
q-22 21 -34 49t-12 59v2q0 31 12 59t34 49q18 19 49.5 32.5t58.5 13.5q15 0 30 -3q13 -3 27 -9q14 -5 25 -13q10 -7 22 -17l361 212q-1 4 -1.5 8t-1.5 9q0 4 -1 9v11q0 30 11.5 58t33.5 49q21 21 49 33.5t59 12.5v0q31 0 59.5 -12.5t48.5 -33.5q22 -21 34 -49t12 -59
q0 -32 -12 -61q-12 -28 -34 -49q-20 -20 -48.5 -32t-58.5 -12h-1q-16 0 -30 2t-27 8q-14 5 -25 13q-12 8 -22 18l-361 -211q1 -5 1 -9q1 -4 2 -9q0 -5 1 -9v-9.5t-0.5 -9.5t-0.5 -10q-1 -4 -1.5 -8t-1.5 -8l364 -214q10 9 22 16t24 13q26 10 54 10q31 0 59 -12v0z" />
    <glyph glyph-name="el-icon-upload" unicode="&#xe6ae;" horiz-adv-x="1365" 
d="M754 -128h285v0q136 4 231 102.5t95 235.5q0 92 -45 169.5t-122.5 123t-168.5 45.5h-10v10q0 92 -45 170t-122.5 123t-169 45t-169 -45t-122.5 -123t-45 -170q0 -7 1 -10h-11q-91 0 -168.5 -45.5t-122.5 -123t-45 -169.5q0 -137 95 -235.5t231 -102.5v0h306v229h-121
q-25 0 -33 15t6 36l186 285q10 14 23 14t22 -14l187 -285q14 -21 6 -36t-34 -15h-120v-229v0z" />
    <glyph glyph-name="el-icon-view" unicode="&#xe6af;" 
d="M634 506h-146v147v1q0 21 -14.5 35t-34.5 14t-34.5 -14t-14.5 -35v-1v-147h-146q-20 0 -34 -14t-14 -34.5t14 -34.5t34 -14h146v-147v-1q0 -21 14.5 -35t34.5 -14t34.5 14t14.5 35v1v147h146q20 0 34.5 14t14.5 34.5t-14.5 34.5t-34.5 14zM1009 -41l-226 227
q39 49 66.5 128.5t27.5 142.5q0 75 -38 166t-91 144.5t-143.5 91t-166 37.5t-166 -37.5t-144 -91t-91 -144.5t-37.5 -166t37.5 -166t91 -144t144 -90.5t165.5 -37.5q64 0 143.5 27.5t129.5 66.5l226 -226q15 -15 36 -15t36 15t15 36t-15 36zM679 217q-41 -41 -111.5 -70.5
t-129 -29.5t-129.5 29.5t-112 70.5t-70.5 112t-29.5 129.5t29.5 129t70.5 112t112 71t129.5 29.5t129 -29.5t111.5 -71t70.5 -112t29.5 -129t-29.5 -129.5t-70.5 -112v0z" />
    <glyph glyph-name="el-icon-warning" unicode="&#xe6b0;" 
d="M512 896h-3q-42 0 -99.5 -11.5t-96.5 -28.5q-39 -16 -86.5 -48t-77 -61.5t-61.5 -77t-48 -86.5q-17 -39 -28.5 -96.5t-11.5 -99.5v-3q0 -106 40 -199q16 -39 48 -86.5t61.5 -77t77 -61.5t86.5 -48q39 -17 96.5 -28.5t99.5 -11.5h3h3q42 0 99.5 11.5t96.5 28.5
q39 16 86.5 48t77 61.5t61.5 77t48 86.5q17 39 28.5 96.5t11.5 99.5v3v3q0 42 -11.5 99.5t-28.5 96.5q-16 39 -48 86.5t-61.5 77t-77 61.5t-86.5 48q-39 17 -96.5 28.5t-99.5 11.5h-3zM512 94h-1q-24 0 -41 17t-17 41v1q0 24 17 41q17 18 41 18h1q25 0 42 -18q17 -16 17 -40
v-1v-1q0 -24 -17 -41t-41 -17h-1zM571 350v-1q0 -25 -17 -41q-17 -18 -41 -18h-1h-1q-24 0 -41 18q-17 16 -17 41v0v276q0 25 17 42t41 17h1q25 0 42 -17t17 -41v-1v-276v1z" />
    <glyph glyph-name="el-icon-more" unicode="&#xe6b1;" 
d="M171 282q41 0 71.5 30.5t30.5 71.5t-30.5 71.5t-71.5 30.5t-72 -30.5t-31 -71.5t31 -71.5t72 -30.5zM512 282q41 0 71.5 30.5t30.5 71.5t-30.5 71.5t-71.5 30.5t-71.5 -30.5t-30.5 -71.5t30.5 -71.5t71.5 -30.5zM853 282q41 0 72 30.5t31 71.5t-31 71.5t-72 30.5
t-71.5 -30.5t-30.5 -71.5t30.5 -71.5t71.5 -30.5z" />
    <glyph glyph-name="el-icon-minus" unicode="&#xe6b2;" 
d="M137 452h750q31 0 50 -18.5t19 -49.5t-19 -49.5t-50 -18.5h-750q-31 0 -50 18.5t-19 49.5t19 49.5t50 18.5z" />
    <glyph glyph-name="el-icon-d-caret1" unicode="&#xe6b3;" 
d="M452 -17q19 -19 51 -19t52 19l247 239q45 38 34.5 66t-68.5 28h-529q-58 0 -68.5 -28t34.5 -66zM452 794q19 19 51 19t52 -19l247 -239q45 -39 34.5 -66.5t-68.5 -27.5h-529q-58 0 -68.5 27.5t34.5 66.5z" />
    <glyph glyph-name="el-icon-circle-close" unicode="&#xe6b4;" 
d="M512 896q-215 0 -363.5 -148.5t-148.5 -363.5t148.5 -363.5t363.5 -148.5t363.5 148.5t148.5 363.5t-148.5 363.5t-363.5 148.5zM778 179q8 -7 8 -25t-7.5 -26t-25.5 -8t-26 8l-205 205l-205 -205q-7 -15 -21 -15t-30 15q-17 17 0 51l205 205l-205 205q-7 0 -7 16.5
t7.5 24t25.5 7.5t25 -7l205 -205l205 205q8 7 26 7t25.5 -7.5t7.5 -25.5t-8 -25l-205 -205z" />
    <glyph glyph-name="el-icon-caret-top1" unicode="&#xe6b5;" 
d="M461 567q22 22 54 22t48 -22l285 -278q44 -44 30.5 -73t-73.5 -29h-600q-61 0 -74 29t30 73z" />
    <glyph glyph-name="xiugaimima" unicode="&#xe6b6;" 
d="M794 486v103q-12 108 -92 182t-190 74t-190 -74t-92 -182v-103h-102v-404q0 -66 47.5 -112.5t116.5 -46.5h440q69 0 116.5 46.5t47.5 112.5v404h-102zM548 164q0 -12 -7 -19t-18.5 -7t-18.5 7t-7 19v107q0 11 8.5 18.5t16.5 7.5q12 0 19 -7t7 -19v-107zM282 486v103
q11 85 77 145t153 60t153 -60t77 -145v-103h-460z" />
    <glyph glyph-name="tuichuicon" unicode="&#xe6b7;" 
d="M855 558q-8 8 -20.5 8t-20.5 -8t-8 -20.5t8 -20.5l102 -102h-496q-12 0 -21.5 -9.5t-9.5 -21.5t9.5 -21.5t21.5 -9.5h502l-108 -107q-8 -8 -8 -21t8 -20q10 -10 20.5 -10t20.5 10l169 179zM614 -20h-522q-15 0 -25.5 10t-10.5 25v738q0 15 10.5 25t25.5 10h522
q16 0 26 -10t10 -25v-226h57v261q0 24 -17 40.5t-40 16.5h-594q-23 0 -39.5 -16.5t-16.5 -40.5v-803q0 -23 16.5 -40t39.5 -17h594q23 0 40 17t17 40v261h-57v-226q0 -18 -10 -29t-26 -11z" />
    <glyph glyph-name="guanbisuoyouchuangkou" unicode="&#xe6b8;" 
d="M901 845h-778q-31 0 -51.5 -20.5t-20.5 -51.5v-778q0 -31 20.5 -51.5t51.5 -20.5h778q31 0 51.5 20.5t20.5 51.5v778q0 31 -20.5 51.5t-51.5 20.5zM849.5 763q11.5 0 21.5 -9.5t10 -21t-10 -21.5t-21.5 -10t-21 10t-9.5 21.5t9.5 21t21 9.5zM742 763q12 0 21.5 -9.5
t9.5 -21t-9.5 -21.5t-21 -10t-21 10t-9.5 21q0 13 8 22t22 9zM922 26q0 -23 -14.5 -37.5t-37.5 -14.5h-716q-23 0 -37.5 14.5t-14.5 37.5v614h820v-614zM328 200l117 123l-117 122q-12 12 -12 32t12 35q11 12 31 12t35 -12l118 -128l118 123q11 11 31 11t35 -11
q12 -12 12 -31.5t-12 -35.5l-117 -123l117 -122q12 -12 12 -32t-12 -35q-15 -15 -30 -15q-23 0 -31 15l-118 123l-118 -123q-15 -15 -30 -15q-23 0 -31 15q-45 37 -10 72z" />
    <glyph glyph-name="el-icon-arrow-down1" unicode="&#xe6b9;" 
d="M490 172q37 -12 66 7l380 344q17 16 17 35.5t-16.5 30.5t-40.5 11t-40 -11l-344 -307l-344 307q-16 16 -40 16t-40 -16q-15 -8 -15 -37q0 -14 15 -29l387 -344q8 -7 15 -7z" />
    <glyph glyph-name="el-icon-arrow-up1" unicode="&#xe6ba;" 
d="M534 596q-37 12 -66 -7l-380 -344q-17 -16 -17 -35.5t16.5 -30.5t40.5 -11t40 11l344 307l344 -307q16 -16 40 -16t40 16q15 8 15 37q0 14 -15 29l-387 344q-8 7 -15 7z" />
    <glyph glyph-name="shangyiyiceng" unicode="&#xe6bc;" 
d="M569 14q0 -22 -16 -39.5t-41 -17.5t-41 17.5t-16 39.5v512h-142q-22 0 -28 11.5t11 28.5l176 176q17 17 40 17t40 -17l176 -176q17 -17 11 -28.5t-28 -11.5h-142v-512z" />
    <glyph glyph-name="xiayiyiceng" unicode="&#xe6bd;" 
d="M569 191h142q22 0 28 -11.5t-11 -28.5l-176 -177q-17 -17 -40 -17t-40 17l-176 177q-18 17 -13 28.5t30 11.5h142v512q0 22 16 39t41 17q26 0 41.5 -15.5t15.5 -40.5v-512z" />
    <glyph glyph-name="el-icon-check1" unicode="&#xe6bb;" 
d="M417 100v0q-26 0 -44 19l-252 252q-16 18 -16 42q0 26 18.5 44.5t44.5 18.5q24 0 42 -16l207 -207l397 396q18 16 42 16q26 0 44.5 -18.5t18.5 -44.5q0 -24 -16 -42l-441 -441q-18 -19 -44 -19h-1z" />
  </font>
</defs>
</svg>
