<?xml version="1.0" standalone="no"?><!DOCTYPE svg PUBLIC "-//W3C//DTD SVG 1.1//EN" "http://www.w3.org/Graphics/SVG/1.1/DTD/svg11.dtd"><svg t="1508226045638" class="icon" style="" viewBox="0 0 1024 1024" version="1.1" xmlns="http://www.w3.org/2000/svg" p-id="2536" xmlns:xlink="http://www.w3.org/1999/xlink" width="128" height="128"><defs><style type="text/css"></style></defs><path d="M491.52 450.56c0-12.288 10.24-22.528 22.528-22.528 12.288 0 22.528 10.24 22.528 22.528v327.68c0 12.288-10.24 22.528-22.528 22.528-12.288 0-22.528-10.24-22.528-22.528v-327.68z m0-163.84c0-12.288 10.24-22.528 22.528-22.528 12.288 0 22.528 10.24 22.528 22.528v61.44c0 12.288-10.24 22.528-22.528 22.528-12.288 0-22.528-10.24-22.528-22.528v-61.44z m436.224 454.656c-6.144 10.24-18.432 14.336-28.672 8.192-10.24-6.144-14.336-18.432-8.192-28.672 118.784-212.992 40.96-481.28-172.032-598.016-212.992-118.784-481.28-40.96-598.016 172.032-118.784 212.992-40.96 481.28 172.032 598.016 153.6 86.016 339.968 69.632 479.232-32.768 8.192-6.144 22.528-4.096 28.672 4.096 6.144 8.192 4.096 22.528-4.096 28.672-151.552 112.64-356.352 129.024-522.24 36.864-233.472-129.024-317.44-421.888-188.416-653.312 129.024-233.472 421.888-317.44 653.312-188.416 233.472 126.976 317.44 419.84 188.416 653.312z" p-id="2537" fill="#ffffff"></path></svg>