<?xml version="1.0" standalone="no"?><!DOCTYPE svg PUBLIC "-//W3C//DTD SVG 1.1//EN" "http://www.w3.org/Graphics/SVG/1.1/DTD/svg11.dtd"><svg t="1508228296842" class="icon" style="" viewBox="0 0 1024 1024" version="1.1" xmlns="http://www.w3.org/2000/svg" p-id="1847" xmlns:xlink="http://www.w3.org/1999/xlink" width="128" height="128"><defs><style type="text/css"></style></defs><path d="M944.242492 479.837486l0-0.103354L543.664164 479.734132 543.664164 111.460558l-0.029676 0c-0.310062-8.55791-7.325849-15.405875-15.959483-15.405875s-15.650445 6.847965-15.959483 15.405875l-0.029676 0 0 368.274598L111.734804 479.735156l0 0.071631c-8.726755 0.119727-15.767102 7.222495-15.767102 15.977903 0 8.830109 7.15905 15.989159 15.989159 15.989159 0.346901 0 0.686638-0.029676 1.028423-0.052189l398.700561 0 0 400.902716 0.056282 0c0.578168 8.305153 7.480368 14.867616 15.932878 14.867616s15.35471-6.562463 15.932878-14.867616l0.056282 0L543.664164 511.721661l398.700561 0c0.341784 0.021489 0.681522 0.052189 1.028423 0.052189 8.830109 0 15.989159-7.15905 15.989159-15.989159C959.382307 487.240083 952.675558 480.281601 944.242492 479.837486z" p-id="1848" fill="#ffffff"></path></svg>