<?xml version="1.0" standalone="no"?><!DOCTYPE svg PUBLIC "-//W3C//DTD SVG 1.1//EN" "http://www.w3.org/Graphics/SVG/1.1/DTD/svg11.dtd"><svg t="1508222411972" class="icon" style="" viewBox="0 0 1024 1024" version="1.1" xmlns="http://www.w3.org/2000/svg" p-id="3062" xmlns:xlink="http://www.w3.org/1999/xlink" width="128" height="128"><defs><style type="text/css"></style></defs><path d="M871.1 571.5c0 48.6-9.5 95.8-28.3 140.1-18.1 42.9-44.1 81.4-77.2 114.4-33.1 33.1-71.6 59-114.4 77.2-44.4 18.8-91.5 28.3-140.1 28.3-48.6 0-95.8-9.5-140.1-28.3-42.9-18.1-81.4-44.1-114.4-77.2-33.1-33.1-59-71.6-77.2-114.4-18.8-44.4-28.3-91.5-28.3-140.1 0-48.6 9.5-95.8 28.3-140.1 18.1-42.9 44.1-81.4 77.2-114.4 33.1-33.1 71.6-59 114.4-77.2 44.4-18.8 91.5-28.3 140.1-28.3L511.1 336l234-142.8-234-142.8 0 121.1c-220.9 0-400 179.1-400 400s179.1 400 400 400 400-179.1 400-400L871.1 571.5z" p-id="3063" fill="#ffffff"></path></svg>