<?xml version="1.0" standalone="no"?><!DOCTYPE svg PUBLIC "-//W3C//DTD SVG 1.1//EN" "http://www.w3.org/Graphics/SVG/1.1/DTD/svg11.dtd"><svg t="1557907292669" class="icon" style="" viewBox="0 0 1024 1024" version="1.1" xmlns="http://www.w3.org/2000/svg" p-id="3916" xmlns:xlink="http://www.w3.org/1999/xlink" width="200" height="200"><defs><style type="text/css"></style></defs><path d="M597.3333333333334 656.2986666666666L597.3333333333334 906.6666666666665C597.3333333333334 924.3306666666666 611.6693333333334 938.6666666666666 629.3333333333334 938.6666666666666s32-14.336 32-32l0-180.672 203.45599999999996 203.51999999999998c11.968 11.968 31.359999999999996 11.968 43.392 0 11.968-12.032 11.968-31.423999999999996 0-43.392L704.6613333333333 682.6666666666666 885.3333333333334 682.6666666666666c17.664 0 32-14.336 32-32S902.9973333333334 618.6666666666666 885.3333333333334 618.6666666666666L634.9653333333333 618.6666666666666C611.6053333333334 618.6666666666666 597.3333333333334 630.6986666666667 597.3333333333334 656.2986666666666z" p-id="3917"></path><path d="M369.68533333333323 618.6666666666666L119.3173333333333 618.6666666666666c-17.664 0-32 14.336-32 32s14.336 32 32 32l180.672 0-203.51999999999998 203.45599999999996c-11.968 11.968-11.968 31.359999999999996 0 43.392 12.032 11.968 31.423999999999996 11.968 43.392 0l203.45599999999996-203.51999999999998L343.3173333333333 906.6666666666665c0 17.664 14.336 32 32 32s32-14.336 32-32l0-250.36799999999997C407.3173333333333 630.6986666666667 393.1093333333333 618.6666666666666 369.68533333333323 618.6666666666666z" p-id="3918"></path><path d="M634.9653333333333 426.6666666666667L885.3333333333334 426.6666666666667C902.9973333333334 426.6666666666667 917.3333333333334 412.3306666666667 917.3333333333334 394.66666666666663S902.9973333333334 362.66666666666663 885.3333333333334 362.66666666666663l-180.672 0 203.51999999999998-203.45599999999996c11.968-11.968 11.968-31.359999999999996 0-43.392-12.032-11.968-31.423999999999996-11.968-43.392 0L661.3333333333334 319.33866666666677 661.3333333333334 138.66666666666663C661.3333333333334 121.0026666666667 646.9973333333332 106.66666666666669 629.3333333333334 106.66666666666669S597.3333333333334 121.0026666666667 597.3333333333334 138.66666666666663l0 250.36799999999997C597.3333333333334 414.6346666666667 611.6053333333334 426.6666666666667 634.9653333333333 426.6666666666667z" p-id="3919"></path><path d="M407.3173333333333 389.0346666666667L407.3173333333333 138.66666666666663c0-17.664-14.336-32-32-32s-32 14.336-32 32l0 180.672-203.45599999999996-203.51999999999998c-11.968-11.968-31.359999999999996-11.968-43.392 0-11.968 12.032-11.968 31.423999999999996 0 43.392L299.9893333333333 362.66666666666663 119.3173333333333 362.66666666666663c-17.664 0-32 14.336-32 32S101.65333333333331 426.6666666666667 119.3173333333333 426.6666666666667l250.36799999999997 0C393.1093333333333 426.6666666666667 407.3173333333333 414.6346666666667 407.3173333333333 389.0346666666667z" p-id="3920"></path></svg>