<?xml version="1.0" encoding="UTF-8"?>
<svg width="15px" height="18px" viewBox="0 0 15 18" version="1.1" xmlns="http://www.w3.org/2000/svg" xmlns:xlink="http://www.w3.org/1999/xlink">
    <!-- Generator: Sketch 41.1 (35376) - http://www.bohemiancoding.com/sketch -->
    <title>修改密码</title>
    <desc>Created with Sketch.</desc>
    <defs></defs>
    <g id="知租侠后台管理系统主页" stroke="none" stroke-width="1" fill="none" fill-rule="evenodd">
        <g id="知租侠后台管理系统_index_个人中心" transform="translate(-926.000000, -123.000000)" fill="#6D6D6D">
            <g id="个人中心弹窗_hover" transform="translate(908.000000, 31.000000)">
                <path d="M32.9992006,99 L18,99 L18,106.863746 C18,108.60613 19.4286193,110 21.214165,110 L29.7850356,110 C31.5706042,110 32.9992006,108.60613 32.9992006,106.863746 L32.9992006,99 Z M25.678075,102.681909 C25.9641094,102.681909 26.2138985,102.925707 26.2138985,103.204509 L26.2138985,105.295405 C26.2138985,105.574183 25.9641094,105.818185 25.678075,105.818185 C25.3924287,105.818185 25.1422514,105.574183 25.1422514,105.295405 L25.1422514,103.204509 C25.1422514,102.925707 25.3924287,102.681909 25.678075,102.681909 Z M25.4996117,92 C22.6305905,92 20.2746476,94.19675 20.0220333,97 L20.0220333,99 L30.9996117,99 L30.9996117,97 C30.7245758,94.19675 28.368633,92 25.4996117,92 Z M25.4996117,93 C23.1833349,93 21.2757983,94.7500248 21.0270761,97 L29.9721474,97 C29.7234252,94.7500248 27.8158886,93 25.4996117,93 Z M20.9996117,97 L29.9996117,97 L29.9996117,99 L20.9996117,99 L20.9996117,97 Z" id="修改密码"></path>
            </g>
        </g>
    </g>
</svg>