<?xml version="1.0" encoding="UTF-8"?>
<svg width="20px" height="18px" viewBox="0 0 20 18" version="1.1" xmlns="http://www.w3.org/2000/svg" xmlns:xlink="http://www.w3.org/1999/xlink">
    <!-- Generator: Sketch 41.1 (35376) - http://www.bohemiancoding.com/sketch -->
    <title>退出icon</title>
    <desc>Created with Sketch.</desc>
    <defs></defs>
    <g id="知租侠后台管理系统主页" stroke="none" stroke-width="1" fill="none" fill-rule="evenodd">
        <g id="知租侠后台管理系统_index_个人中心" transform="translate(-926.000000, -163.000000)" fill="#6D6D6D">
            <g id="个人中心弹窗_hover" transform="translate(908.000000, 31.000000)">
                <path d="M34.6752926,137.601184 C34.455444,137.381446 34.0992442,137.381446 33.8793705,137.601184 C33.6594969,137.820896 33.6594969,138.176887 33.8793705,138.396625 L35.9156048,140.431523 L26.1982234,140.431523 C25.8870725,140.431523 25.6353509,140.68343 25.6353509,140.994053 C25.6353509,141.304702 25.8870474,141.556533 26.1982234,141.556533 L35.9507404,141.556533 L33.8793705,143.626335 C33.6594969,143.846073 33.6594969,144.202039 33.8793705,144.421751 C33.9892948,144.531607 34.1333257,144.586585 34.2773315,144.586585 C34.4213374,144.586585 34.5653683,144.531607 34.6752675,144.421751 L38,141.011593 L34.6752926,137.601184 Z M30.0059954,148.875518 L19.814378,148.875518 C19.4382512,148.875518 19.1334247,148.570816 19.1334247,148.195027 L19.1509674,133.811221 C19.1509674,133.435407 19.4558441,133.13068 19.8319709,133.13068 L30.0060205,133.13068 C30.3820217,133.13068 30.6869487,133.435407 30.6869487,133.811221 L30.6869487,138.187527 L31.820273,138.187527 L31.820273,133.125009 C31.820273,132.503687 31.3162777,132 30.6944526,132 L19.1257952,132 C18.5040455,132 18,132.503687 18,133.125009 L18,148.874991 C18,149.496338 18.5040455,150 19.1257952,150 L30.6944526,150 C31.3162777,150 31.820273,149.496338 31.820273,148.874991 L31.820273,143.795335 L30.6869487,143.793779 L30.6869487,148.195027 C30.6869236,148.570816 30.3819966,148.875518 30.0059954,148.875518 Z" id="退出icon"></path>
            </g>
        </g>
    </g>
</svg>