<?xml version="1.0" encoding="UTF-8"?>
<svg width="8px" height="8px" viewBox="0 0 8 8" version="1.1" xmlns="http://www.w3.org/2000/svg" xmlns:xlink="http://www.w3.org/1999/xlink">
    <!-- Generator: Sketch 41.1 (35376) - http://www.bohemiancoding.com/sketch -->
    <title>close</title>
    <desc>Created with Sketch.</desc>
    <defs></defs>
    <g id="知租侠后台管理系统主页" stroke="none" stroke-width="1" fill="none" fill-rule="evenodd">
        <g id="知租侠后台管理系统_index_个人中心" transform="translate(-277.000000, -22.000000)" fill="#4E4D4E">
            <g id="normal" transform="translate(211.000000, 10.000000)">
                <g id="tabs">
                    <g id="tab-1">
                        <path d="M70,15.2183165 L66.9439896,12.1623061 C66.7275252,11.9458417 66.3777901,11.9460782 66.1619342,12.1619342 C65.9523911,12.3714772 65.9462447,12.7279282 66.1623061,12.9439896 L69.2183165,16 L66.1623061,19.0560104 C65.9458417,19.2724748 65.9460782,19.6222099 66.1619342,19.8380658 C66.3714772,20.0476089 66.7279282,20.0537553 66.9439896,19.8376939 L70,16.7816835 L73.0560104,19.8376939 C73.2724748,20.0541583 73.6222099,20.0539218 73.8380658,19.8380658 C74.0476089,19.6285228 74.0537553,19.2720718 73.8376939,19.0560104 L70.7816835,16 L73.8376939,12.9439896 C74.0541583,12.7275252 74.0539218,12.3777901 73.8380658,12.1619342 C73.6285228,11.9523911 73.2720718,11.9462447 73.0560104,12.1623061 L70,15.2183165 Z" id="close"></path>
                    </g>
                </g>
            </g>
        </g>
    </g>
</svg>