<?xml version="1.0" encoding="UTF-8"?>
<svg width="18px" height="18px" viewBox="0 0 18 18" version="1.1" xmlns="http://www.w3.org/2000/svg" xmlns:xlink="http://www.w3.org/1999/xlink">
    <!-- Generator: Sketch 41.1 (35376) - http://www.bohemiancoding.com/sketch -->
    <title>关闭所有窗口</title>
    <desc>Created with Sketch.</desc>
    <defs></defs>
    <g id="知租侠后台管理系统主页" stroke="none" stroke-width="1" fill="none" fill-rule="evenodd">
        <g id="知租侠后台管理系统_index_个人中心" transform="translate(-925.000000, -203.000000)" fill="#6D6D6D">
            <g id="个人中心弹窗_hover" transform="translate(908.000000, 31.000000)">
                <path d="M33.5890112,172 L18.4107561,172 C17.6328734,172 17,172.633022 17,173.41166 L17,188.58834 C17,189.366512 17.6328734,190 18.4107561,190 L33.5892439,190 C34.3671266,190 35,189.366512 35,188.58834 L35,173.41166 C34.9997672,172.633022 34.3668938,172 33.5890112,172 Z M32.6330674,173.606902 C32.9668447,173.606902 33.2373114,173.877864 33.2373114,174.212198 C33.2373114,174.546299 32.9668447,174.817262 32.6330674,174.817262 C32.2988246,174.817262 32.0283579,174.546299 32.0283579,174.212198 C32.0283579,173.877864 32.2990573,173.606902 32.6330674,173.606902 Z M30.4667736,173.606902 C30.8010164,173.606902 31.0714831,173.877864 31.0714831,174.212198 C31.0714831,174.546299 30.8010164,174.817262 30.4667736,174.817262 C30.1329963,174.817262 29.8625296,174.546299 29.8625296,174.212198 C29.8627623,173.877864 30.133229,173.606902 30.4667736,173.606902 Z M34,188.001498 C34,188.552955 33.5553691,189 32.9991283,189 L19.0008717,189 C18.4481055,189 18,188.552511 18,188.001498 L18,176 L34,176 L34,188.001498 Z M22.3858249,184.613606 L24.7348351,182.262083 L22.3858249,179.910559 C22.0364527,179.560848 22.0364527,178.993761 22.3858249,178.644283 C22.7351971,178.294804 23.3012685,178.294804 23.6506407,178.644283 L25.9998836,180.995806 L28.3493593,178.644516 C28.6987315,178.295037 29.2648029,178.295037 29.6141751,178.644516 C29.9635473,178.993994 29.9635473,179.561081 29.6141751,179.910792 L27.2651649,182.262083 L29.6139423,184.613606 C29.9633145,184.963318 29.9633145,185.530405 29.6139423,185.879883 C29.4393726,186.054622 29.2103371,186.142225 28.9815344,186.142225 C28.7524989,186.142225 28.5236962,186.054622 28.3491265,185.879883 L25.9998836,183.52836 L23.650408,185.87965 C23.4758383,186.054389 23.2472683,186.141992 23.0180001,186.141992 C22.7894301,186.141992 22.5601619,186.054389 22.3855922,185.87965 C22.0364527,185.530172 22.0364527,184.963318 22.3858249,184.613606 Z" id="关闭所有窗口"></path>
            </g>
        </g>
    </g>
</svg>